<svg xmlns="http://www.w3.org/2000/svg" width="25.152" height="24.895" viewBox="0 0 25.152 24.895"><g transform="translate(-2 -2)"><path d="M2,10.03c0-2.371,0-3.557.737-4.294S4.659,5,7.03,5H22.122c2.371,0,3.557,0,4.294.737s.737,1.922.737,4.294c0,.593,0,.889-.184,1.073s-.481.184-1.074.184H3.258c-.593,0-.889,0-1.073-.184S2,10.623,2,10.03Z" transform="translate(0 0.515)" fill="#fff"/><path d="M2,19.546c0,2.371,0,3.557.737,4.294s1.922.737,4.294.737H22.122c2.371,0,3.557,0,4.294-.737s.737-1.922.737-4.294V13.258c0-.593,0-.889-.184-1.074S26.488,12,25.895,12H3.258c-.593,0-.889,0-1.073.184S2,12.665,2,13.258Zm6.288-3.773c0-.593,0-.889.184-1.074s.481-.184,1.073-.184h2.515c.593,0,.889,0,1.074.184s.184.481.184,1.074,0,.889-.184,1.074-.481.184-1.074.184H9.546c-.593,0-.889,0-1.073-.184S8.288,16.366,8.288,15.773Zm.184,3.957c-.184.184-.184.481-.184,1.074s0,.889.184,1.074.481.184,1.073.184h2.515c.593,0,.889,0,1.074-.184s.184-.481.184-1.074,0-.889-.184-1.074-.481-.184-1.074-.184H9.546C8.953,19.546,8.656,19.546,8.472,19.73Zm7.362-3.957c0-.593,0-.889.184-1.074s.481-.184,1.074-.184h2.515c.593,0,.889,0,1.074.184s.184.481.184,1.074,0,.889-.184,1.074-.481.184-1.074.184H17.091c-.593,0-.889,0-1.074-.184S15.834,16.366,15.834,15.773Zm.184,3.957c-.184.184-.184.481-.184,1.074s0,.889.184,1.074.481.184,1.074.184h2.515c.593,0,.889,0,1.074-.184s.184-.481.184-1.074,0-.889-.184-1.074-.481-.184-1.074-.184H17.091C16.5,19.546,16.2,19.546,16.018,19.73Z" transform="translate(0 2.319)" fill="#fff" fill-rule="evenodd"/><path d="M7,3V6.773" transform="translate(1.288)" fill="none" stroke="#fff" stroke-linecap="round" stroke-width="2"/><path d="M17,3V6.773" transform="translate(3.864)" fill="none" stroke="#fff" stroke-linecap="round" stroke-width="2"/></g></svg>