<svg xmlns="http://www.w3.org/2000/svg" width="27.799" height="20.632" viewBox="0 0 27.799 20.632"><path d="M10.166,6.218H28.8m-18.632,8.6H28.8m-18.632,8.6H28.8M3.717,6.217h.014m-.014,8.6h.014m-.014,8.6h.014m.7-17.2A.717.717,0,1,1,3.717,5.5.717.717,0,0,1,4.433,6.217Zm0,8.6a.717.717,0,1,1-.717-.717A.717.717,0,0,1,4.433,14.816Zm0,8.6a.717.717,0,1,1-.717-.717A.717.717,0,0,1,4.433,23.416Z" transform="translate(-2 -4.5)" fill="none" stroke="#fff" stroke-linecap="round" stroke-linejoin="round" stroke-width="2"/></svg>