<svg xmlns="http://www.w3.org/2000/svg" width="12.438" height="13.742" viewBox="0 0 12.438 13.742"><g transform="translate(1 1)"><path d="M10,12v3.262" transform="translate(-6.086 -6.129)" fill="none" stroke="red" stroke-linecap="round" stroke-linejoin="round" stroke-width="2"/><path d="M14,12v3.262" transform="translate(-7.477 -6.129)" fill="none" stroke="red" stroke-linecap="round" stroke-linejoin="round" stroke-width="2"/><path d="M4,7H14.438" transform="translate(-4 -4.391)" fill="none" stroke="red" stroke-linecap="round" stroke-linejoin="round" stroke-width="2"/><path d="M6,10v5.219a1.957,1.957,0,0,0,1.957,1.957h3.914a1.957,1.957,0,0,0,1.957-1.957V10" transform="translate(-4.695 -5.434)" fill="none" stroke="red" stroke-linecap="round" stroke-linejoin="round" stroke-width="2"/><path d="M9,4.3A1.3,1.3,0,0,1,10.3,3h1.3a1.3,1.3,0,0,1,1.3,1.3v1.3H9Z" transform="translate(-5.738 -3)" fill="none" stroke="red" stroke-linecap="round" stroke-linejoin="round" stroke-width="2"/></g></svg>