<svg xmlns="http://www.w3.org/2000/svg" width="37.794" height="42.269" viewBox="0 0 37.794 42.269"><g transform="translate(1 1)"><path d="M10,12V23.186" transform="translate(3.423 8.134)" fill="none" stroke="#fff" stroke-linecap="round" stroke-linejoin="round" stroke-width="2"/><path d="M14,12V23.186" transform="translate(8.371 8.134)" fill="none" stroke="#fff" stroke-linecap="round" stroke-linejoin="round" stroke-width="2"/><path d="M4,7H39.794" transform="translate(-4 1.949)" fill="none" stroke="#fff" stroke-linecap="round" stroke-linejoin="round" stroke-width="2"/><path d="M6,10V27.9a6.711,6.711,0,0,0,6.711,6.711H26.134A6.711,6.711,0,0,0,32.846,27.9V10" transform="translate(-1.526 5.66)" fill="none" stroke="#fff" stroke-linecap="round" stroke-linejoin="round" stroke-width="2"/><path d="M9,7.474A4.474,4.474,0,0,1,13.474,3h4.474a4.474,4.474,0,0,1,4.474,4.474v4.474H9Z" transform="translate(2.186 -3)" fill="none" stroke="#fff" stroke-linecap="round" stroke-linejoin="round" stroke-width="2"/></g></svg>