<svg xmlns="http://www.w3.org/2000/svg" width="20.371" height="20.371" viewBox="0 0 20.371 20.371"><g transform="translate(-3 -3)"><path d="M14,5.837a2.852,2.852,0,0,1,.125-1.21,1.148,1.148,0,0,1,.5-.5A2.852,2.852,0,0,1,15.837,4h3.215a2.852,2.852,0,0,1,1.21.125,1.148,1.148,0,0,1,.5.5,2.852,2.852,0,0,1,.125,1.21V9.052a2.852,2.852,0,0,1-.125,1.21,1.148,1.148,0,0,1-.5.5,2.852,2.852,0,0,1-1.21.125H15.837a2.852,2.852,0,0,1-1.21-.125,1.148,1.148,0,0,1-.5-.5A2.852,2.852,0,0,1,14,9.052Z" transform="translate(1.482)" fill="none" stroke="#fff" stroke-linecap="round" stroke-linejoin="round" stroke-width="2"/><path d="M4,5.837a2.853,2.853,0,0,1,.125-1.21,1.148,1.148,0,0,1,.5-.5A2.853,2.853,0,0,1,5.837,4H9.052a2.853,2.853,0,0,1,1.21.125,1.148,1.148,0,0,1,.5.5,2.853,2.853,0,0,1,.125,1.21V9.052a2.853,2.853,0,0,1-.125,1.21,1.148,1.148,0,0,1-.5.5,2.853,2.853,0,0,1-1.21.125H5.837a2.853,2.853,0,0,1-1.21-.125,1.148,1.148,0,0,1-.5-.5A2.853,2.853,0,0,1,4,9.052Z" fill="none" stroke="#fff" stroke-linecap="round" stroke-linejoin="round" stroke-width="2"/><path d="M4,15.837a2.852,2.852,0,0,1,.125-1.21,1.148,1.148,0,0,1,.5-.5A2.852,2.852,0,0,1,5.837,14H9.052a2.852,2.852,0,0,1,1.21.125,1.148,1.148,0,0,1,.5.5,2.852,2.852,0,0,1,.125,1.21v3.215a2.852,2.852,0,0,1-.125,1.21,1.148,1.148,0,0,1-.5.5,2.852,2.852,0,0,1-1.21.125H5.837a2.852,2.852,0,0,1-1.21-.125,1.148,1.148,0,0,1-.5-.5A2.852,2.852,0,0,1,4,19.052Z" transform="translate(0 1.482)" fill="none" stroke="#fff" stroke-linecap="round" stroke-linejoin="round" stroke-width="2"/><path d="M14,15.837a2.852,2.852,0,0,1,.125-1.21,1.148,1.148,0,0,1,.5-.5A2.852,2.852,0,0,1,15.837,14h3.215a2.852,2.852,0,0,1,1.21.125,1.148,1.148,0,0,1,.5.5,2.852,2.852,0,0,1,.125,1.21v3.215a2.852,2.852,0,0,1-.125,1.21,1.148,1.148,0,0,1-.5.5,2.852,2.852,0,0,1-1.21.125H15.837a2.852,2.852,0,0,1-1.21-.125,1.148,1.148,0,0,1-.5-.5A2.852,2.852,0,0,1,14,19.052Z" transform="translate(1.482 1.482)" fill="none" stroke="#fff" stroke-linecap="round" stroke-linejoin="round" stroke-width="2"/></g></svg>